# xmcd
#
# Track frame offsets: 
#        150
#        14288
#        28485
#        43147
#        54357
#        70382
#        84146
#        98433
#        111734
#        126283
#        139477
#        152217
#        166293
#        179675
#        193902
#        206504
#        220663
#        232963
#
# Disc length: 3295 seconds
#
# Revision: 1
# Processed by: cddbd v1.5.2PL0 Copyright (c) Steve Scherf et al.
# Submitted via: ExactAudioCopy v0.95b2
#
DISCID=090cdd12
DTITLE=Cow Cow Davenport - The Essential Cow Cow Davenport Disc 1
DYEAR=1900
DGENRE=General Blues
TTITLE0=Mama Don't Allow No Easy Riders
TTITLE1=Cow Cow Blues
TTITLE2=WE Gonna Rub It
TTITLE3=My Sweet Silver Dollar Mama - with Hound Head Henry
TTITLE4=You Rascal You - with Lovin' Sam Theard
TTITLE5=State Street Jive
TTITLE6=Chimin' The Blues
TTITLE7=You Got Another Thought Coming To You - with Dora Carr
TTITLE8=Slow Drag
TTITLE9=Back In The Alley
TTITLE10=Low Down Hound Blues - with Hound Head Henry
TTITLE11=Everybody Likes That Thing - with Ivy Smith
TTITLE12=Jeep Boogie
TTITLE13=Atlanta Rag
TTITLE14=That'll Get It - with Lovin' Sam Theard
TTITLE15=Gotta Girl For Every Day Of The Week
TTITLE16=I've Been Hoodooed - with Jim Towel
TTITLE17=Texas Shout
EXTD=hale
EXTT0=
EXTT1=
EXTT2=
EXTT3=
EXTT4=
EXTT5=
EXTT6=
EXTT7=
EXTT8=
EXTT9=
EXTT10=
EXTT11=
EXTT12=
EXTT13=
EXTT14=
EXTT15=
EXTT16=
EXTT17=
PLAYORDER=
